<svg width="1439" height="309" viewBox="0 0 1439 309" fill="none" xmlns="http://www.w3.org/2000/svg">
<path fill-rule="evenodd" clip-rule="evenodd" d="M0 80.878L60 64.2599C120 47.6417 240 15.161 360 4.5859C480 -6.74465 600 4.5859 720 20.4485C840 37.0667 960 58.9723 1080 64.2599C1200 69.5474 1320 58.9723 1380 53.6848L1440 47.6417V309H1380C1320 309 1200 309 1080 309C960 309 840 309 720 309C600 309 480 309 360 309C240 309 120 309 60 309H0V80.878Z" fill="url(#paint0_linear)"/>
<defs>
<linearGradient id="paint0_linear" x1="93.9999" y1="-69.0474" x2="1059.05" y2="646.416" gradientUnits="userSpaceOnUse">
<stop stop-color="#1937D4"/>
<stop offset="1" stop-color="#BC0995"/>
</linearGradient>
</defs>
</svg>
